<svg width="50px" height="50px" viewBox="0 0 50 50" version="1.1" xmlns="http://www.w3.org/2000/svg" xmlns:xlink="http://www.w3.org/1999/xlink">
    <defs></defs>
    <g id="FORSIDE" stroke="none" stroke-width="1" fill="none" fill-rule="evenodd">
        <g transform="translate(-604.000000, -4307.000000)" id="Footer" fill="#FFFFFF">
            <g transform="translate(0.000000, 4172.000000)">
                <g id="FULL-WHITE" transform="translate(355.000000, 134.000000)">
                    <g id="Linkedin" transform="translate(249.000000, 1.000000)">
                        <path d="M24.6849693,0.37208589 C11.1766871,0.37208589 0.225766871,11.3230061 0.225766871,24.8312883 C0.225766871,38.3331288 11.1766871,49.2840491 24.6849693,49.2840491 C38.1868098,49.2840491 49.1377301,38.3331288 49.1377301,24.8312883 C49.1377301,11.3230061 38.1868098,0.37208589 24.6849693,0.37208589 L24.6849693,0.37208589 Z M14.0368098,20.9018405 L18.5460123,20.9018405 L18.5460123,35.7177914 L14.0368098,35.7177914 L14.0368098,20.9018405 Z M16.0273006,19.6134969 L15.995092,19.6134969 C14.3138037,19.6134969 13.2315951,18.3315951 13.2315951,16.9079755 C13.2315951,15.458589 14.3460123,14.2797546 16.0595092,14.2797546 C17.7665644,14.2797546 18.8165644,15.4972393 18.8552147,16.9466258 C18.8552147,18.3702454 17.7665644,19.6134969 16.0273006,19.6134969 L16.0273006,19.6134969 Z M37.2269939,35.7177914 L31.4294479,35.7177914 L31.4294479,28.2131902 C31.4294479,26.2226994 30.7659509,24.8699387 28.9558282,24.8699387 C27.5773006,24.8699387 26.7785276,25.7846626 26.4177914,26.6671779 C26.2825153,26.9828221 26.2760736,27.4208589 26.2760736,27.8653374 L26.2760736,35.7177914 L21.290184,35.7177914 C21.290184,35.7177914 21.3546012,22.190184 21.290184,20.9018405 L26.2760736,20.9018405 L26.2760736,23.4334356 C26.9202454,22.4285276 28.4662577,20.9920245 31.1202454,20.9920245 C34.4119632,20.9920245 37.2269939,23.0984663 37.2269939,27.646319 L37.2269939,35.7177914 L37.2269939,35.7177914 Z"></path>
                    </g>
                </g>
            </g>
        </g>
    </g>
</svg>