<svg id="Layer_1" data-name="Layer 1" xmlns="http://www.w3.org/2000/svg" xmlns:xlink="http://www.w3.org/1999/xlink" viewBox="0 0 743 234"><defs><clipPath id="clip-path"><ellipse cx="102.37" cy="104.83" rx="109.01" ry="104.61" style="fill:none"/></clipPath><clipPath id="clip-path-2"><rect x="-132.16" y="-843.24" width="1096.72" height="1092.31" style="fill:none"/></clipPath><clipPath id="clip-path-3"><rect x="-12.14" y="-5.28" width="268.67" height="220.22" style="fill:none"/></clipPath><clipPath id="clip-path-4"><rect x="-6.64" y="0.22" width="218.02" height="209.21" style="fill:none"/></clipPath><clipPath id="clip-path-5"><rect x="57.23" y="6.83" width="154.16" height="198.2" style="fill:none"/></clipPath></defs><title>Logo</title><g style="clip-path:url(#clip-path)"><g style="clip-path:url(#clip-path-2)"><g style="isolation:isolate"><g style="clip-path:url(#clip-path-3)"><g style="clip-path:url(#clip-path-4)"><rect x="-12.14" y="-5.28" width="229.03" height="220.22" style="fill:none"/></g><g style="clip-path:url(#clip-path-5)"><ellipse cx="156.29" cy="105.93" rx="72" ry="72.02" style="fill:none;stroke:#000;stroke-miterlimit:10"/><line x1="156.88" y1="8.52" x2="156.88" y2="59.96" style="fill:none;stroke:#000;stroke-linecap:square;stroke-miterlimit:10"/><line x1="254.85" y1="106.52" x2="203.41" y2="106.52" style="fill:none;stroke:#fff;stroke-linecap:square;stroke-miterlimit:10"/><line x1="110.86" y1="106.52" x2="59.42" y2="106.52" style="fill:none;stroke:#000;stroke-linecap:square;stroke-miterlimit:10"/><line x1="156.88" y1="151.39" x2="156.88" y2="202.83" style="fill:none;stroke:#000;stroke-linecap:square;stroke-miterlimit:10"/></g></g></g></g></g><text transform="translate(131.01 135.66)" style="font-size:79.28092193603516px;fill:#fff;font-family:ToppanBunkyuMidashiMinchoStdN-ExtraBold-83pv-RKSJ-H, Toppan Bunkyu Midashi Mincho;font-weight:700"><tspan style="letter-spacing:-0.07999762113471681em">T</tspan><tspan x="44.4" y="0">a</tspan><tspan x="90.14" y="0" style="letter-spacing:-0.02900214011266314em">r</tspan><tspan x="125.18" y="0">get in Sig</tspan><tspan x="481.39" y="0" style="letter-spacing:-0.009004274547613825em">h</tspan><tspan x="536.41" y="0">t</tspan></text><path d="M313.25,182.46h3.38l8.81,20.28,8.81-20.28h3.21v24.17H335.2v-21.3h-.07l-9.22,21.3h-1l-9.35-21.3h-.07v21.3h-2.25Z"/><path d="M351.25,182.46h2.32l10.17,24.17h-2.53l-2.63-6.42h-12.8l-2.73,6.42H340.7Zm1.06,2.46-5.63,13.24h11.09Z"/><path d="M367.22,182.46h6.35l1.3,0a13.5,13.5,0,0,1,1.78.21,11,11,0,0,1,1.95.55,5.52,5.52,0,0,1,1.78,1.09,5.66,5.66,0,0,1,1.3,1.81,6.24,6.24,0,0,1,.51,2.66,6.1,6.1,0,0,1-.6,2.87,5.56,5.56,0,0,1-1.5,1.83,6.3,6.3,0,0,1-2,1A12.93,12.93,0,0,1,376,195l7,11.61h-2.56l-6.79-11.47h-4.2v11.47h-2.25Zm2.25,10.65h4.78a7.88,7.88,0,0,0,2.88-.44,4.79,4.79,0,0,0,1.72-1.09,3.46,3.46,0,0,0,.84-1.4,4.31,4.31,0,0,0,0-2.73,3.47,3.47,0,0,0-.84-1.4,4.79,4.79,0,0,0-1.72-1.09,7.9,7.9,0,0,0-2.88-.44h-4.78Z"/><path d="M387.46,182.46h2.25v24.17h-2.25Z"/><path d="M396.34,182.46h14.78v2H398.59v8.6h11.74v2H398.59v9.42h13.07v2H396.34Z"/><path d="M425.46,182.46h2.25v10.65h13.52V182.46h2.25v24.17h-2.25V195.16H427.71v11.47h-2.25Z"/><path d="M457.51,182.46h2.32L470,206.63h-2.53l-2.63-6.42H452l-2.73,6.42H447Zm1.06,2.46-5.63,13.24H464Z"/><path d="M473.48,182.46h2.25v10.65h13.52V182.46h2.25v24.17h-2.25V195.16H475.73v11.47h-2.25Z"/><path d="M498.13,182.46H501l14.71,21.16h.07V182.46h2.25v24.17h-2.9l-14.71-21.16h-.07v21.16h-2.25Z"/><path d="M522.84,197.62h8.43v1.84h-8.43Z"/><path d="M536,182.46h7a12.89,12.89,0,0,1,2.65.29,7.67,7.67,0,0,1,2.53,1,5.65,5.65,0,0,1,1.88,2,6.07,6.07,0,0,1,.73,3.12,6.28,6.28,0,0,1-.6,2.83,5.55,5.55,0,0,1-1.6,2,6.92,6.92,0,0,1-2.32,1.14,9.93,9.93,0,0,1-2.75.38H538.3v11.47H536Zm2.25,10.65h5.12a8,8,0,0,0,1.88-.22,4.84,4.84,0,0,0,1.64-.72,3.72,3.72,0,0,0,1.16-1.31,4.18,4.18,0,0,0,.44-2,4,4,0,0,0-.46-2,4.14,4.14,0,0,0-1.2-1.35,4.9,4.9,0,0,0-1.69-.77,7.9,7.9,0,0,0-1.91-.24h-5Z"/><path d="M555.64,182.46h14.78v2H557.9v8.6h11.74v2H557.9v9.42H571v2H555.64Z"/><path d="M581.24,184.51H573v-2h18.77v2H583.5v22.12h-2.25Z"/><path d="M595.48,182.46h14.78v2H597.73v8.6h11.74v2H597.73v9.42H610.8v2H595.48Z"/><path d="M615.72,182.46h6.35l1.3,0a13.5,13.5,0,0,1,1.78.21,11,11,0,0,1,1.95.55,5.52,5.52,0,0,1,1.78,1.09,5.66,5.66,0,0,1,1.3,1.81,6.24,6.24,0,0,1,.51,2.66,6.1,6.1,0,0,1-.6,2.87,5.56,5.56,0,0,1-1.5,1.83,6.3,6.3,0,0,1-2,1,12.93,12.93,0,0,1-2.08.48l7,11.61H629l-6.79-11.47H618v11.47h-2.25ZM618,193.11h4.78a7.88,7.88,0,0,0,2.88-.44,4.79,4.79,0,0,0,1.72-1.09,3.46,3.46,0,0,0,.84-1.4,4.31,4.31,0,0,0,0-2.73,3.47,3.47,0,0,0-.84-1.4,4.79,4.79,0,0,0-1.72-1.09,7.9,7.9,0,0,0-2.88-.44H618Z"/><path d="M636.61,202.16a5.77,5.77,0,0,0,2.3,2.29,6.78,6.78,0,0,0,3.23.75,6.42,6.42,0,0,0,2.12-.34,5.39,5.39,0,0,0,1.72-1,4.52,4.52,0,0,0,1.16-1.49,4.4,4.4,0,0,0,.43-2,3.77,3.77,0,0,0-.53-2.08,4.25,4.25,0,0,0-1.42-1.35,10.49,10.49,0,0,0-2-.9l-2.29-.75q-1.18-.37-2.29-.85a7.63,7.63,0,0,1-2-1.25,5.55,5.55,0,0,1-1.42-1.93,6.91,6.91,0,0,1-.53-2.87,6.22,6.22,0,0,1,.63-2.85,6.08,6.08,0,0,1,1.71-2.08,7.6,7.6,0,0,1,2.47-1.26,10,10,0,0,1,2.94-.43,9.51,9.51,0,0,1,3.67.7,7,7,0,0,1,2.92,2.34l-1.95,1.4a5.72,5.72,0,0,0-2-1.79,5.8,5.8,0,0,0-2.71-.6,7.37,7.37,0,0,0-2.08.29A5.19,5.19,0,0,0,639,185a4.2,4.2,0,0,0-1.18,1.42,4.31,4.31,0,0,0-.44,2,3.89,3.89,0,0,0,.92,2.78,6.5,6.5,0,0,0,2.3,1.54,24.34,24.34,0,0,0,3,1,14.51,14.51,0,0,1,3,1.14,6.48,6.48,0,0,1,2.3,2,6,6,0,0,1,.92,3.53,6.55,6.55,0,0,1-.61,2.9,6.38,6.38,0,0,1-1.66,2.13,7.17,7.17,0,0,1-2.41,1.31,9.13,9.13,0,0,1-2.83.44,11.37,11.37,0,0,1-4.4-.84,8.05,8.05,0,0,1-3.45-2.82Z"/><path d="M654.94,182.46h14.78v2H657.19v8.6h11.74v2H657.19v9.42h13.07v2H654.94Z"/><path d="M675.18,182.46h2.9l14.71,21.16h.07V182.46h2.25v24.17h-2.9L677.5,185.47h-.07v21.16h-2.25Z"/><path d="M165.34,76.59c3.33,0,8.17-.08,11.5-.32,1.35-.08,1.75-.08,2.06-.08,1.51,0,1.74.24,1.82,1.74S181,82.78,181,86c0,1.9-.08,3.81-.16,5.39-.08.71-.32,1-.63,1s-.63-.16-.71-.79c-1.43-8.25-5.07-13.4-13.88-13.4h-.87c-3,0-3.17.08-3.17,3.25v47.41c0,4.76.16,4.92,7.93,5.23a.79.79,0,1,1,0,1.59c-.32,0-.87,0-2.54-.08-3.09-.16-7.37-.32-10.55-.32s-7.45.16-10.55.32c-1.66.08-2.22.08-2.54.08a.79.79,0,1,1,0-1.59c7.77-.32,7.93-.48,7.93-5.23V81.43c0-3.17-.16-3.25-3.17-3.25h-.87c-8.8,0-12.45,5.15-13.88,13.4-.08.63-.4.79-.71.79s-.55-.24-.63-1c-.08-1.59-.16-3.49-.16-5.39,0-3.25.16-6.5.24-8.09s.32-1.74,1.82-1.74c.4,0,.87,0,2.22.08,3.33.24,8,.32,11.34.32Z"/><path d="M212.43,127.66c0,4,1.19,4.52,2.78,4.52,1.9,0,3.17-1.66,4.52-6.58.16-.48.32-.71.79-.71a.65.65,0,0,1,.63.71l-.08.56c-1.35,6.26-4.44,9.51-10.55,9.51-4.28,0-7.22-2.38-7.22-7.61h-.55c-2,5.95-6.82,8.33-12.92,8.33s-11.26-2.93-11.26-9.36c0-7.45,7.06-11.42,23.95-13.08v-7.69c0-8.8-3.89-11.1-8.33-11.1-4.76,0-7.45,3-7.45,4.68,0,.63.32.87,1,1a4.16,4.16,0,0,1,3.57,4.36c0,2.06-1.82,4.6-5.39,4.6a4.84,4.84,0,0,1-4.84-5.15c0-6.19,7.61-11.42,15.62-11.42,9.83,0,15.7,5.31,15.7,17Zm-9.91-12.29c-10,.87-14.51,4.36-14.51,10.94,0,3.57,2.3,6.5,6.18,6.5,4.68,0,8.33-3.89,8.33-10.15Z"/><path d="M239,104.82c1.51-7.06,5.87-11.89,11.81-11.89,4.76,0,7.29,2.7,7.29,5.95,0,3.65-2.3,6.11-5.71,6.11-3.09,0-4.92-2-4.92-4.6a4.91,4.91,0,0,1,3.33-4.76c.55-.16.71-.32.71-.63s-.32-.48-1.19-.48c-5.39,0-10.47,5.63-10.47,16.81v17c0,5.15.16,5.39,7.45,5.71a.8.8,0,1,1,0,1.59c-2.3,0-4.6-.08-7-.24-2.14-.08-4.28-.16-5.47-.16s-3.17.08-5.07.16c-2.06.16-4,.24-5.07.24a.8.8,0,1,1,0-1.59c4.76-.32,5.15-.48,5.15-5.71V102.28c0-5.63-.4-5.87-4.12-5.87H224.4a.8.8,0,1,1,0-1.59c6.26,0,10.78-.4,13.64-1.35a1.91,1.91,0,0,1,.79-.16.83.83,0,0,1,.87.87,21.62,21.62,0,0,1-.48,2.7,72.79,72.79,0,0,0-1,7.93Z"/><path d="M281.88,130.51c11.1,0,16.65,4,16.65,11.81,0,10-10.23,16.65-21.72,16.65-12.45,0-19.82-4.12-19.82-10.63,0-5.15,3.89-8.56,11.1-9.36-5.15-1-8.09-4.12-8.09-8.8,0-5.63,4-8.72,7.93-10.31A13.09,13.09,0,0,1,261.82,109c0-10.62,8.56-15.78,16.41-15.78a17.45,17.45,0,0,1,4,.48c1.27-5.71,5.23-11.1,11.1-11.1,4.12,0,6.42,2.54,6.42,5.39,0,3.09-2,5.23-4.92,5.23a3.9,3.9,0,0,1-4.2-4,4.22,4.22,0,0,1,2.85-4.12c.48-.08.63-.24.63-.55,0-.16-.32-.4-1-.4-4.12,0-8.17,3.89-9.51,10,5.47,1.82,10.55,6.42,10.55,13,0,10.63-8.56,15.78-16.41,15.78a17.2,17.2,0,0,1-8.4-2.3,5.21,5.21,0,0,0-3.09,4.84c0,2.62,2,5,9.12,5Zm-9.91,8.8a5.41,5.41,0,0,0-3.89,1.19,9.15,9.15,0,0,0-2.93,7.21c0,5.71,3.89,9.67,12.61,9.67,8,0,13.24-4.92,13.24-10.47,0-5.39-4.92-7.61-12.37-7.61Zm-.71-30.92c0,4.2.55,8.17,2.22,10.55a5.28,5.28,0,0,0,4.6,2.38,5,5,0,0,0,4.2-2c1.82-2.62,2.38-6.58,2.38-11.5,0-4.2-.63-7.61-2.3-10.47a5.06,5.06,0,0,0-4.52-2.46,4.38,4.38,0,0,0-4.36,2.38C271.81,100.06,271.26,104.26,271.26,108.39Z"/><path d="M314,110.05a43,43,0,0,0-.24,4.52c0,7.14,1.35,13.8,4.68,17.36a8.62,8.62,0,0,0,6.5,2.7c8.33,0,12.21-5.95,13.8-9a.85.85,0,0,1,.71-.48.89.89,0,0,1,1,.79,1,1,0,0,1-.16.63c-2.7,4.84-7.61,9.83-17,9.83-9,0-20.3-7-20.3-20.38,0-14.43,11-22.83,20.85-22.83,10.23,0,16.73,6.82,16.73,15.62v1.19Zm14.51-1.59c1.74,0,2-.4,2-2,0-3.49-.87-7.22-2.46-9.2a6.66,6.66,0,0,0-10.47.16c-1.67,2.22-2.85,6.42-3.41,11Z"/><path d="M362,124.64c0,6.5,2,8.4,5.63,8.4,3,0,5.47-2.14,6.9-7.37a.68.68,0,0,1,.71-.55.79.79,0,0,1,.79.79c0,.71-2.14,10.55-11.58,10.55-6.66,0-12.29-3.41-12.29-12v-22.6c0-4.36-.71-5.47-3.65-5.47h-2.93a.79.79,0,1,1,0-1.59h1.27c5.47,0,11.58-3.65,13.56-13.24a.84.84,0,0,1,.79-.79.82.82,0,0,1,.79.87V94.83h11.18a.84.84,0,0,1,1,.79.86.86,0,0,1-1,.87H362Z"/><path d="M399.53,96.42a.8.8,0,1,1,0-1.59,72.13,72.13,0,0,0,13.32-1,3.36,3.36,0,0,1,.87-.16.86.86,0,0,1,.87,1,11.28,11.28,0,0,1-.16,1.67,68.33,68.33,0,0,0-.48,8.48v23.23c0,5.47.24,5.71,5.71,6a.81.81,0,1,1,0,1.59c-.71,0-2.78-.08-5.07-.24-2.14-.08-4.44-.16-5.63-.16s-3.33.08-5.31.16c-2.22.16-4.36.24-5.55.24a.79.79,0,0,1,0-1.59c5.55-.32,5.87-.48,5.87-6v-25c0-5.79-.16-6.66-3.09-6.66Zm15.62-18.16a5.87,5.87,0,1,1-5.79-5.87A5.89,5.89,0,0,1,415.15,78.26Z"/><path d="M469.62,128.37c0,5.39.4,5.39,5.23,5.71a.8.8,0,1,1,0,1.59c-1,0-3.09-.08-5.15-.24-1.9-.16-3.89-.16-5.07-.16s-3.17,0-5.15.16-4,.24-5,.24a.8.8,0,1,1,0-1.59c4.76-.32,5.15-.32,5.15-5.71V107.91c0-8.33-2.93-12.05-8.64-12.05-5.23,0-9.59,5.23-9.59,12.92v19.58c0,5.31.16,5.39,5.87,5.71a.8.8,0,1,1,0,1.59c-.71,0-3-.08-5.39-.24-2.14-.08-4.28-.16-5.47-.16s-3.17.08-5.07.16c-2.06.16-4,.24-5.07.24a.8.8,0,1,1,0-1.59c4.76-.32,5.15-.32,5.15-5.71V103.08c0-5.79-.16-6.66-3.09-6.66H427a.8.8,0,1,1,0-1.59c6.26,0,9.91-.24,12.69-1.35a2.31,2.31,0,0,1,.71-.16.83.83,0,0,1,.87.87,21.62,21.62,0,0,1-.48,2.7,72.79,72.79,0,0,0-1,7.93h.48c1.35-7.45,6.66-11.58,15.14-11.58,8.64,0,14.19,5,14.19,14.35Z"/><path d="M534.7,91.58c0,.56-.32.87-.71.87a.72.72,0,0,1-.79-.71c-1.59-9-6-14.75-13.24-14.75-5.71,0-9.83,3.65-9.83,10.31,0,7,5.31,9.67,12.69,13.16,9.67,4.6,15.22,8,15.22,17.52s-7.22,18.47-21.09,18.47a36.43,36.43,0,0,1-8.48-1.19,22.61,22.61,0,0,0-5.15-.87,2.63,2.63,0,0,0-2.62,1.51.76.76,0,0,1-.71.48.65.65,0,0,1-.63-.71,3.75,3.75,0,0,1,.24-1.19,29,29,0,0,0,1.11-8.72,69.14,69.14,0,0,0-.55-8.4,5.66,5.66,0,0,1-.08-1,.73.73,0,0,1,.71-.79.76.76,0,0,1,.71.55c3.33,11.5,7.22,18.79,16.57,18.79,7.29,0,12-3.65,12-10.47s-4-10-13.56-14.91c-8.72-4.44-14.91-8.48-14.91-17.21,0-10.7,8.4-16.89,18-16.89a26.58,26.58,0,0,1,9.28,1.74,9.7,9.7,0,0,0,3.17.79c1.19,0,1.43-.4,2-1.43a.83.83,0,0,1,.79-.55.88.88,0,0,1,.87.87,12,12,0,0,1-.32,1.9A80.65,80.65,0,0,0,534.7,90Z"/><path d="M545.8,96.42a.8.8,0,1,1,0-1.59,72.13,72.13,0,0,0,13.32-1,3.36,3.36,0,0,1,.87-.16.86.86,0,0,1,.87,1,11.28,11.28,0,0,1-.16,1.67,68.33,68.33,0,0,0-.48,8.48v23.23c0,5.47.24,5.71,5.71,6a.81.81,0,1,1,0,1.59c-.71,0-2.78-.08-5.07-.24-2.14-.08-4.44-.16-5.63-.16s-3.33.08-5.31.16c-2.22.16-4.36.24-5.55.24a.79.79,0,0,1,0-1.59c5.55-.32,5.87-.48,5.87-6v-25c0-5.79-.16-6.66-3.09-6.66Zm15.62-18.16a5.87,5.87,0,1,1-5.79-5.87A5.89,5.89,0,0,1,561.42,78.26Z"/><path d="M595,130.51c11.1,0,16.65,4,16.65,11.81,0,10-10.23,16.65-21.72,16.65-12.45,0-19.82-4.12-19.82-10.63,0-5.15,3.89-8.56,11.1-9.36-5.15-1-8.09-4.12-8.09-8.8,0-5.63,4-8.72,7.93-10.31A13.09,13.09,0,0,1,574.9,109c0-10.62,8.56-15.78,16.41-15.78a17.45,17.45,0,0,1,4,.48c1.27-5.71,5.23-11.1,11.1-11.1,4.12,0,6.42,2.54,6.42,5.39,0,3.09-2,5.23-4.92,5.23a3.9,3.9,0,0,1-4.2-4,4.22,4.22,0,0,1,2.85-4.12c.48-.08.63-.24.63-.55,0-.16-.32-.4-1-.4-4.12,0-8.17,3.89-9.51,10,5.47,1.82,10.55,6.42,10.55,13,0,10.63-8.56,15.78-16.41,15.78a17.2,17.2,0,0,1-8.4-2.3,5.21,5.21,0,0,0-3.09,4.84c0,2.62,2,5,9.12,5Zm-9.91,8.8a5.41,5.41,0,0,0-3.89,1.19,9.15,9.15,0,0,0-2.93,7.21c0,5.71,3.89,9.67,12.61,9.67,8,0,13.24-4.92,13.24-10.47,0-5.39-4.92-7.61-12.37-7.61Zm-.71-30.92c0,4.2.55,8.17,2.22,10.55a5.28,5.28,0,0,0,4.6,2.38,5,5,0,0,0,4.2-2c1.82-2.62,2.38-6.58,2.38-11.5,0-4.2-.63-7.61-2.3-10.47a5.06,5.06,0,0,0-4.52-2.46,4.38,4.38,0,0,0-4.36,2.38C584.89,100.06,584.33,104.26,584.33,108.39Z"/><path d="M659.73,128.37c0,5.55.4,5.71,5.23,5.71a.79.79,0,0,1,0,1.59c-1.11,0-3.09-.08-5.15-.24-1.9-.16-3.89-.16-5.07-.16s-3.25,0-5.15.16-4,.24-5,.24a.81.81,0,1,1,0-1.59c4.76,0,5.15-.16,5.15-5.71V107.91c0-8.33-2.93-12.05-8.64-12.05-5.23,0-9.59,5.23-9.59,12.92v19.58c0,5.47.24,5.71,5.87,5.71a.8.8,0,1,1,0,1.59c-.71,0-3-.08-5.31-.24-2.14-.08-4.36-.16-5.55-.16s-3.17.08-5.15.16-3.89.24-5.71.24a.8.8,0,1,1,0-1.59c5.55,0,5.87-.16,5.87-5.71V81c0-7.22-.24-7.45-3.89-7.45H617A.8.8,0,1,1,617,72c7-.48,9.12-1.11,13.16-2.93a1.5,1.5,0,0,1,.71-.24.87.87,0,0,1,1,1c0,.32,0,.79-.16,3.41-.16,1.9-.24,4.68-.24,9v9.51a56.24,56.24,0,0,1-1.51,13.16h.48c1.35-7.45,6.66-11.58,15.14-11.58,8.64,0,14.19,5,14.19,14.35Z"/><path d="M685.41,124.64c0,6.5,2,8.4,5.63,8.4,3,0,5.47-2.14,6.9-7.37a.68.68,0,0,1,.71-.55.79.79,0,0,1,.79.79c0,.71-2.14,10.55-11.58,10.55-6.66,0-12.29-3.41-12.29-12v-22.6c0-4.36-.71-5.47-3.65-5.47H669a.79.79,0,1,1,0-1.59h1.27c5.47,0,11.58-3.65,13.56-13.24a.84.84,0,0,1,.79-.79.82.82,0,0,1,.79.87V94.83h11.18a.84.84,0,0,1,1,.79.86.86,0,0,1-1,.87H685.41Z"/></svg>